# xmcd
#
# Track frame offsets:
#	150
#	18832
#	36057
#	58607
#	75837
#	93010
#	112852
#	126485
#	146702
#	162880
#	179830
#	200412
#	220817
#	237685
#	254940
#	284725
#
# Disc length: 4074
#
# Revision: 2
# Processed by: cddbd v1.5.1PL0 Copyright (c) Steve Scherf et al.
# Submitted via: CDex 1.30Release
# Normalized: r1:DSETVAR1,TDELIM( - )
#
DISCID=ec0fe810
DTITLE=Various Artist - Blues
DYEAR=1900
DGENRE=Blues
TTITLE0=Luther Allison - Soul Fixin' Man (Live)
TTITLE1=Shemekia Copeland - I Always Get My Man
TTITLE2=Albert Collins, Robert Cray and Johnny Copeland - The Moon Is Full
TTITLE3=Dave Hole - Short Memory
TTITLE4=Little Charlie and The Nightcats - New Old Lady
TTITLE5=Lonnie Brooks, Long John Hunter and Phillip Walker - Street Walking Woman
TTITLE6=Buddy Guy and Junior Wells - Wrong Doing Woman
TTITLE7=Corey Harris - Basehead
TTITLE8=Johnny Winter - Boot Hill
TTITLE9=Lil' Ed and The Blues Imperials - Compact Man
TTITLE10=William Clarke - Please Let Me Be Your Santa Claus
TTITLE11=The Kinsey Report - Time Is Running Out
TTITLE12=Delbert McClinton - Maybe Someday Baby
TTITLE13=Koko Taylor - Put The Pot On
TTITLE14=Buddy Guy - Are You Losing Your Mind?
TTITLE15=Hound Dog Taylor - Give Me Back My Wig (Live)
EXTD=ID3G:   0
EXTT0=
EXTT1=
EXTT2=
EXTT3=
EXTT4=
EXTT5=
EXTT6=
EXTT7=
EXTT8=
EXTT9=
EXTT10=
EXTT11=
EXTT12=
EXTT13=
EXTT14=
EXTT15=
PLAYORDER=
